# Wavefront OBJ file automatically generated by Tiled2Unity

# Vertices (Count = 605)
v -24832 -4096 0
v -24960 -4096 0
v -24960 -3968 0
v -24832 -3968 0
v -25088 -4096 0
v -25088 -3968 0
v -25216 -4096 0
v -25216 -3968 0
v -25344 -4096 0
v -25344 -3968 0
v -25472 -4096 0
v -25472 -3968 0
v -25600 -4096 0
v -25600 -3968 0
v -25728 -4096 0
v -25728 -3968 0
v -25856 -4096 0
v -25856 -3968 0
v -25984 -4096 0
v -25984 -3968 0
v -26112 -4096 0
v -26112 -3968 0
v -26240 -4096 0
v -26240 -3968 0
v -26368 -4096 0
v -26368 -3968 0
v -26496 -4096 0
v -26496 -3968 0
v -26624 -4096 0
v -26624 -3968 0
v -26752 -4096 0
v -26752 -3968 0
v -26880 -4096 0
v -26880 -3968 0
v -27008 -4096 0
v -27008 -3968 0
v -27136 -4096 0
v -27136 -3968 0
v -27264 -4096 0
v -27264 -3968 0
v -27392 -4096 0
v -27392 -3968 0
v -24704 -4224 0
v -24832 -4224 0
v -24704 -4096 0
v -24960 -4224 0
v -27264 -4224 0
v -27392 -4224 0
v -27520 -4224 0
v -27520 -4096 0
v -24192 -4352 0
v -24320 -4352 0
v -24320 -4224 0
v -24192 -4224 0
v -24448 -4352 0
v -24448 -4224 0
v -24576 -4352 0
v -24576 -4224 0
v -24704 -4352 0
v -24832 -4352 0
v -27392 -4352 0
v -27520 -4352 0
v -27648 -4352 0
v -27648 -4224 0
v -24064 -4480 0
v -24192 -4480 0
v -24064 -4352 0
v -24320 -4480 0
v -27520 -4480 0
v -27648 -4480 0
v -27776 -4480 0
v -27776 -4352 0
v -23936 -4608 0
v -24064 -4608 0
v -23936 -4480 0
v -24192 -4608 0
v -27648 -4608 0
v -27776 -4608 0
v -27904 -4608 0
v -27904 -4480 0
v -15360 -4736 0
v -15488 -4736 0
v -15488 -4608 0
v -15360 -4608 0
v -15616 -4736 0
v -15616 -4608 0
v -15744 -4736 0
v -15744 -4608 0
v -15872 -4736 0
v -15872 -4608 0
v -16000 -4736 0
v -16000 -4608 0
v -23808 -4736 0
v -23936 -4736 0
v -23808 -4608 0
v -24064 -4736 0
v -27776 -4736 0
v -27904 -4736 0
v -28032 -4736 0
v -28032 -4608 0
v -15104 -4864 0
v -15232 -4864 0
v -15232 -4736 0
v -15104 -4736 0
v -15872 -4864 0
v -16000 -4864 0
v -16128 -4864 0
v -16128 -4736 0
v -23680 -4864 0
v -23808 -4864 0
v -23680 -4736 0
v -23936 -4864 0
v -27904 -4864 0
v -28032 -4864 0
v -28160 -4864 0
v -28160 -4736 0
v -6016 -4992 0
v -6144 -4992 0
v -6144 -4864 0
v -6016 -4864 0
v -6272 -4992 0
v -6272 -4864 0
v -6400 -4992 0
v -6400 -4864 0
v -6528 -4992 0
v -6528 -4864 0
v -6656 -4992 0
v -6656 -4864 0
v -6912 -4992 0
v -7040 -4992 0
v -7040 -4864 0
v -6912 -4864 0
v -7296 -4992 0
v -7424 -4992 0
v -7424 -4864 0
v -7296 -4864 0
v -7552 -4992 0
v -7552 -4864 0
v -14848 -4992 0
v -14976 -4992 0
v -14976 -4864 0
v -14848 -4864 0
v -16000 -4992 0
v -16128 -4992 0
v -16256 -4992 0
v -16256 -4864 0
v -23552 -4992 0
v -23680 -4992 0
v -23552 -4864 0
v -23808 -4992 0
v -28032 -4992 0
v -28160 -4992 0
v -28288 -4992 0
v -28288 -4864 0
v -5888 -5120 0
v -6016 -5120 0
v -5888 -4992 0
v -6144 -5120 0
v -7424 -5120 0
v -7552 -5120 0
v -7680 -5120 0
v -7680 -4992 0
v -14464 -5120 0
v -14592 -5120 0
v -14592 -4992 0
v -14464 -4992 0
v -14720 -5120 0
v -14720 -4992 0
v -16128 -5120 0
v -16256 -5120 0
v -16384 -5120 0
v -16384 -4992 0
v -23040 -5120 0
v -23168 -5120 0
v -23168 -4992 0
v -23040 -4992 0
v -23296 -5120 0
v -23296 -4992 0
v -23424 -5120 0
v -23424 -4992 0
v -23552 -5120 0
v -23680 -5120 0
v -28160 -5120 0
v -28288 -5120 0
v -28416 -5120 0
v -28416 -4992 0
v -5632 -5248 0
v -5760 -5248 0
v -5760 -5120 0
v -5632 -5120 0
v -5888 -5248 0
v -6016 -5248 0
v -7552 -5248 0
v -7680 -5248 0
v -7808 -5248 0
v -7808 -5120 0
v -8448 -5248 0
v -8576 -5248 0
v -8576 -5120 0
v -8448 -5120 0
v -8704 -5248 0
v -8704 -5120 0
v -8832 -5248 0
v -8832 -5120 0
v -8960 -5248 0
v -8960 -5120 0
v -9088 -5248 0
v -9088 -5120 0
v -9216 -5248 0
v -9216 -5120 0
v -9344 -5248 0
v -9344 -5120 0
v -9472 -5248 0
v -9472 -5120 0
v -9600 -5248 0
v -9600 -5120 0
v -9728 -5248 0
v -9728 -5120 0
v -14080 -5248 0
v -14208 -5248 0
v -14208 -5120 0
v -14080 -5120 0
v -16256 -5248 0
v -16384 -5248 0
v -16512 -5248 0
v -16512 -5120 0
v -22912 -5248 0
v -23040 -5248 0
v -22912 -5120 0
v -23168 -5248 0
v -28288 -5248 0
v -28416 -5248 0
v -28544 -5248 0
v -28544 -5120 0
v -7680 -5376 0
v -7808 -5376 0
v -7936 -5376 0
v -7936 -5248 0
v -13824 -5376 0
v -13952 -5376 0
v -13952 -5248 0
v -13824 -5248 0
v -16384 -5376 0
v -16512 -5376 0
v -16640 -5376 0
v -16640 -5248 0
v -22784 -5376 0
v -22912 -5376 0
v -22784 -5248 0
v -23040 -5376 0
v -28416 -5376 0
v -28544 -5376 0
v -28672 -5376 0
v -28672 -5248 0
v -4736 -5504 0
v -4864 -5504 0
v -4864 -5376 0
v -4736 -5376 0
v -4992 -5504 0
v -4992 -5376 0
v -5120 -5504 0
v -5120 -5376 0
v -5248 -5504 0
v -5248 -5376 0
v -13440 -5504 0
v -13568 -5504 0
v -13568 -5376 0
v -13440 -5376 0
v -13696 -5504 0
v -13696 -5376 0
v -16512 -5504 0
v -16640 -5504 0
v -16768 -5504 0
v -16768 -5376 0
v -22656 -5504 0
v -22784 -5504 0
v -22656 -5376 0
v -22912 -5504 0
v -28544 -5504 0
v -28672 -5504 0
v -28800 -5504 0
v -28800 -5376 0
v -4480 -5632 0
v -4608 -5632 0
v -4608 -5504 0
v -4480 -5504 0
v -13056 -5632 0
v -13184 -5632 0
v -13184 -5504 0
v -13056 -5504 0
v -13312 -5632 0
v -13312 -5504 0
v -16640 -5632 0
v -16768 -5632 0
v -16896 -5632 0
v -16896 -5504 0
v -22528 -5632 0
v -22656 -5632 0
v -22528 -5504 0
v -22784 -5632 0
v -28672 -5632 0
v -28800 -5632 0
v -28928 -5632 0
v -28928 -5504 0
v -4224 -5760 0
v -4352 -5760 0
v -4352 -5632 0
v -4224 -5632 0
v -5376 -5760 0
v -5504 -5760 0
v -5504 -5632 0
v -5376 -5632 0
v -5632 -5760 0
v -5632 -5632 0
v -5760 -5760 0
v -5760 -5632 0
v -5888 -5760 0
v -5888 -5632 0
v -6016 -5760 0
v -6016 -5632 0
v -8192 -5760 0
v -8320 -5760 0
v -8320 -5632 0
v -8192 -5632 0
v -8448 -5760 0
v -8448 -5632 0
v -8576 -5760 0
v -8576 -5632 0
v -8704 -5760 0
v -8704 -5632 0
v -8832 -5760 0
v -8832 -5632 0
v -8960 -5760 0
v -8960 -5632 0
v -9088 -5760 0
v -9088 -5632 0
v -9216 -5760 0
v -9216 -5632 0
v -9344 -5760 0
v -9344 -5632 0
v -9472 -5760 0
v -9472 -5632 0
v -9600 -5760 0
v -9600 -5632 0
v -9728 -5760 0
v -9728 -5632 0
v -9856 -5760 0
v -9856 -5632 0
v -10240 -5760 0
v -10368 -5760 0
v -10368 -5632 0
v -10240 -5632 0
v -10496 -5760 0
v -10496 -5632 0
v -10624 -5760 0
v -10624 -5632 0
v -11008 -5760 0
v -11136 -5760 0
v -11136 -5632 0
v -11008 -5632 0
v -11264 -5760 0
v -11264 -5632 0
v -11392 -5760 0
v -11392 -5632 0
v -11776 -5760 0
v -11904 -5760 0
v -11904 -5632 0
v -11776 -5632 0
v -12032 -5760 0
v -12032 -5632 0
v -12160 -5760 0
v -12160 -5632 0
v -12544 -5760 0
v -12672 -5760 0
v -12672 -5632 0
v -12544 -5632 0
v -12800 -5760 0
v -12800 -5632 0
v -12928 -5760 0
v -12928 -5632 0
v -16768 -5760 0
v -16896 -5760 0
v -17024 -5760 0
v -17024 -5632 0
v -22400 -5760 0
v -22528 -5760 0
v -22400 -5632 0
v -22656 -5760 0
v -28800 -5760 0
v -28928 -5760 0
v -29056 -5760 0
v -29056 -5632 0
v 0 -5888 0
v -128 -5888 0
v -128 -5760 0
v 0 -5760 0
v -256 -5888 0
v -256 -5760 0
v -384 -5888 0
v -384 -5760 0
v -512 -5888 0
v -512 -5760 0
v -640 -5888 0
v -640 -5760 0
v -768 -5888 0
v -768 -5760 0
v -896 -5888 0
v -896 -5760 0
v -1024 -5888 0
v -1024 -5760 0
v -1152 -5888 0
v -1152 -5760 0
v -1408 -5888 0
v -1536 -5888 0
v -1536 -5760 0
v -1408 -5760 0
v -1664 -5888 0
v -1664 -5760 0
v -1792 -5888 0
v -1792 -5760 0
v -1920 -5888 0
v -1920 -5760 0
v -2048 -5888 0
v -2048 -5760 0
v -2176 -5888 0
v -2176 -5760 0
v -2304 -5888 0
v -2304 -5760 0
v -2432 -5888 0
v -2432 -5760 0
v -2560 -5888 0
v -2560 -5760 0
v -2688 -5888 0
v -2688 -5760 0
v -2816 -5888 0
v -2816 -5760 0
v -3328 -5888 0
v -3456 -5888 0
v -3456 -5760 0
v -3328 -5760 0
v -3584 -5888 0
v -3584 -5760 0
v -3712 -5888 0
v -3712 -5760 0
v -3840 -5888 0
v -3840 -5760 0
v -3968 -5888 0
v -3968 -5760 0
v -4096 -5888 0
v -4096 -5760 0
v -5760 -5888 0
v -5888 -5888 0
v -6016 -5888 0
v -6144 -5888 0
v -6144 -5760 0
v -7936 -5888 0
v -8064 -5888 0
v -8064 -5760 0
v -7936 -5760 0
v -16896 -5888 0
v -17025 -5888 0
v -17025 -5760 0
v -21888 -5888 0
v -22016 -5888 0
v -22016 -5760 0
v -21888 -5760 0
v -22144 -5888 0
v -22144 -5760 0
v -22272 -5888 0
v -22272 -5760 0
v -22400 -5888 0
v -22528 -5888 0
v -28928 -5888 0
v -29056 -5888 0
v -29184 -5888 0
v -29184 -5760 0
v -29312 -5888 0
v -29312 -5760 0
v -29440 -5888 0
v -29440 -5760 0
v -29568 -5888 0
v -29568 -5760 0
v -5888 -6016 0
v -6016 -6016 0
v -6144 -6016 0
v -6272 -6016 0
v -6272 -5888 0
v -7680 -6016 0
v -7808 -6016 0
v -7808 -5888 0
v -7680 -5888 0
v -21760 -6016 0
v -21888 -6016 0
v -21760 -5888 0
v -22016 -6016 0
v -6144 -6144 0
v -6272 -6144 0
v -6400 -6144 0
v -6400 -6016 0
v -6528 -6144 0
v -6528 -6016 0
v -6656 -6144 0
v -6656 -6016 0
v -6784 -6144 0
v -6784 -6016 0
v -7424 -6144 0
v -7552 -6144 0
v -7552 -6016 0
v -7424 -6016 0
v -17152 -6144 0
v -17280 -6144 0
v -17280 -6034 0
v -17152 -6034 0
v -17408 -6144 0
v -17408 -6032 0
v -17280 -6032 0
v -17536 -6144 0
v -17536 -6031 0
v -17408 -6031 0
v -21632 -6144 0
v -21760 -6144 0
v -21632 -6016 0
v -21888 -6144 0
v -21504 -6272 0
v -21632 -6272 0
v -21504 -6144 0
v -21760 -6272 0
v -17664 -6400 0
v -17792 -6400 0
v -17792 -6290 0
v -17664 -6290 0
v -17920 -6400 0
v -17920 -6288 0
v -17792 -6288 0
v -18048 -6400 0
v -18048 -6287 0
v -17920 -6287 0
v -21376 -6400 0
v -21504 -6400 0
v -21376 -6272 0
v -21632 -6400 0
v -21248 -6528 0
v -21376 -6528 0
v -21248 -6400 0
v -21504 -6528 0
v -18176 -6656 0
v -18304 -6656 0
v -18304 -6546 0
v -18176 -6546 0
v -18432 -6656 0
v -18432 -6544 0
v -18304 -6544 0
v -18560 -6656 0
v -18560 -6543 0
v -18432 -6543 0
v -18944 -6656 0
v -19072 -6656 0
v -19072 -6528 0
v -18944 -6528 0
v -19200 -6656 0
v -19200 -6528 0
v -19328 -6656 0
v -19328 -6528 0
v -19456 -6656 0
v -19456 -6528 0
v -19584 -6656 0
v -19584 -6528 0
v -19712 -6656 0
v -19712 -6528 0
v -19840 -6656 0
v -19840 -6528 0
v -19968 -6656 0
v -19968 -6528 0
v -20096 -6656 0
v -20096 -6528 0
v -20224 -6656 0
v -20224 -6528 0
v -20352 -6656 0
v -20352 -6528 0
v -20480 -6656 0
v -20480 -6528 0
v -20608 -6656 0
v -20608 -6528 0
v -20736 -6656 0
v -20736 -6528 0
v -20864 -6656 0
v -20864 -6528 0
v -20992 -6656 0
v -20992 -6528 0
v -21120 -6656 0
v -21120 -6528 0
v -21248 -6656 0
v -21376 -6656 0
v -202 -5760 0
v -202 -5713 0
v -128 -5713 0
v -714 -5760 0
v -714 -5713 0
v -640 -5713 0
v -1098 -5760 0
v -1098 -5713 0
v -1024 -5713 0
v -29636 -5760 0
v -29636 -5505 0
v -29440 -5505 0

# Texture Coorindates (Count = 4)
vt 0.0001220703 0.0001220703
vt 0.9998779 0.0001220703
vt 0.9998779 0.9998779
vt 0.0001220703 0.9998779

# Normal
vn 0 0 -1

# Groups (Count = 14)
g mesh_[00]_[54]
f  1/1/1  2/2/1  3/3/1  4/4/1 
f  43/1/1  44/2/1  1/3/1  45/4/1 
f  51/1/1  52/2/1  53/3/1  54/4/1 
f  65/1/1  66/2/1  51/3/1  67/4/1 
f  73/1/1  74/2/1  65/3/1  75/4/1 
f  93/1/1  94/2/1  73/3/1  95/4/1 
f  109/1/1  110/2/1  93/3/1  111/4/1 
f  117/1/1  118/2/1  119/3/1  120/4/1 
f  147/1/1  148/2/1  109/3/1  149/4/1 
f  155/1/1  156/2/1  117/3/1  157/4/1 
f  173/1/1  174/2/1  175/3/1  176/4/1 
f  227/1/1  228/2/1  173/3/1  229/4/1 
f  247/1/1  248/2/1  227/3/1  249/4/1 
f  275/1/1  276/2/1  247/3/1  277/4/1 
f  297/1/1  298/2/1  275/3/1  299/4/1 
f  385/1/1  386/2/1  297/3/1  387/4/1 
f  463/1/1  464/2/1  465/3/1  466/4/1 
f  492/1/1  493/2/1  463/3/1  494/4/1 
f  520/1/1  521/2/1  492/3/1  522/4/1 
f  524/1/1  525/2/1  520/3/1  526/4/1 
f  538/1/1  539/2/1  524/3/1  540/4/1 
f  542/1/1  543/2/1  538/3/1  544/4/1 
g mesh_[00]_[50]
f  2/1/1  5/2/1  6/3/1  3/4/1 
f  5/1/1  7/2/1  8/3/1  6/4/1 
f  7/1/1  9/2/1  10/3/1  8/4/1 
f  9/1/1  11/2/1  12/3/1  10/4/1 
f  11/1/1  13/2/1  14/3/1  12/4/1 
f  13/1/1  15/2/1  16/3/1  14/4/1 
f  15/1/1  17/2/1  18/3/1  16/4/1 
f  17/1/1  19/2/1  20/3/1  18/4/1 
f  19/1/1  21/2/1  22/3/1  20/4/1 
f  21/1/1  23/2/1  24/3/1  22/4/1 
f  23/1/1  25/2/1  26/3/1  24/4/1 
f  25/1/1  27/2/1  28/3/1  26/4/1 
f  27/1/1  29/2/1  30/3/1  28/4/1 
f  29/1/1  31/2/1  32/3/1  30/4/1 
f  31/1/1  33/2/1  34/3/1  32/4/1 
f  33/1/1  35/2/1  36/3/1  34/4/1 
f  35/1/1  37/2/1  38/3/1  36/4/1 
f  37/1/1  39/2/1  40/3/1  38/4/1 
f  52/1/1  55/2/1  56/3/1  53/4/1 
f  55/1/1  57/2/1  58/3/1  56/4/1 
f  57/1/1  59/2/1  43/3/1  58/4/1 
f  81/1/1  82/2/1  83/3/1  84/4/1 
f  82/1/1  85/2/1  86/3/1  83/4/1 
f  85/1/1  87/2/1  88/3/1  86/4/1 
f  87/1/1  89/2/1  90/3/1  88/4/1 
f  101/1/1  102/2/1  103/3/1  104/4/1 
f  118/1/1  121/2/1  122/3/1  119/4/1 
f  121/1/1  123/2/1  124/3/1  122/4/1 
f  123/1/1  125/2/1  126/3/1  124/4/1 
f  125/1/1  127/2/1  128/3/1  126/4/1 
f  129/1/1  130/2/1  131/3/1  132/4/1 
f  133/1/1  134/2/1  135/3/1  136/4/1 
f  139/1/1  140/2/1  141/3/1  142/4/1 
f  163/1/1  164/2/1  165/3/1  166/4/1 
f  164/1/1  167/2/1  168/3/1  165/4/1 
f  174/1/1  177/2/1  178/3/1  175/4/1 
f  177/1/1  179/2/1  180/3/1  178/4/1 
f  179/1/1  181/2/1  147/3/1  180/4/1 
f  188/1/1  191/2/1  155/3/1  189/4/1 
f  219/1/1  220/2/1  221/3/1  222/4/1 
f  239/1/1  240/2/1  241/3/1  242/4/1 
f  255/1/1  256/2/1  257/3/1  258/4/1 
f  256/1/1  259/2/1  260/3/1  257/4/1 
f  259/1/1  261/2/1  262/3/1  260/4/1 
f  261/1/1  263/2/1  264/3/1  262/4/1 
f  265/1/1  266/2/1  267/3/1  268/4/1 
f  266/1/1  269/2/1  270/3/1  267/4/1 
f  283/1/1  284/2/1  285/3/1  286/4/1 
f  287/1/1  288/2/1  289/3/1  290/4/1 
f  288/1/1  291/2/1  292/3/1  289/4/1 
f  305/1/1  306/2/1  307/3/1  308/4/1 
f  310/1/1  313/2/1  314/3/1  311/4/1 
f  313/1/1  315/2/1  316/3/1  314/4/1 
f  315/1/1  317/2/1  318/3/1  316/4/1 
f  321/1/1  322/2/1  323/3/1  324/4/1 
f  322/1/1  325/2/1  326/3/1  323/4/1 
f  325/1/1  327/2/1  328/3/1  326/4/1 
f  327/1/1  329/2/1  330/3/1  328/4/1 
f  329/1/1  331/2/1  332/3/1  330/4/1 
f  331/1/1  333/2/1  334/3/1  332/4/1 
f  333/1/1  335/2/1  336/3/1  334/4/1 
f  335/1/1  337/2/1  338/3/1  336/4/1 
f  337/1/1  339/2/1  340/3/1  338/4/1 
f  339/1/1  341/2/1  342/3/1  340/4/1 
f  341/1/1  343/2/1  344/3/1  342/4/1 
f  343/1/1  345/2/1  346/3/1  344/4/1 
f  350/1/1  353/2/1  354/3/1  351/4/1 
f  358/1/1  361/2/1  362/3/1  359/4/1 
f  366/1/1  369/2/1  370/3/1  367/4/1 
f  374/1/1  377/2/1  378/3/1  375/4/1 
f  394/1/1  397/2/1  398/3/1  395/4/1 
f  397/1/1  399/2/1  400/3/1  398/4/1 
f  399/1/1  401/2/1  402/3/1  400/4/1 
f  401/1/1  403/2/1  404/3/1  402/4/1 
f  403/1/1  405/2/1  406/3/1  404/4/1 
f  405/1/1  407/2/1  408/3/1  406/4/1 
f  407/1/1  409/2/1  410/3/1  408/4/1 
f  409/1/1  411/2/1  412/3/1  410/4/1 
f  413/1/1  414/2/1  415/3/1  416/4/1 
f  414/1/1  417/2/1  418/3/1  415/4/1 
f  417/1/1  419/2/1  420/3/1  418/4/1 
f  419/1/1  421/2/1  422/3/1  420/4/1 
f  421/1/1  423/2/1  424/3/1  422/4/1 
f  423/1/1  425/2/1  426/3/1  424/4/1 
f  425/1/1  427/2/1  428/3/1  426/4/1 
f  427/1/1  429/2/1  430/3/1  428/4/1 
f  429/1/1  431/2/1  432/3/1  430/4/1 
f  431/1/1  433/2/1  434/3/1  432/4/1 
f  433/1/1  435/2/1  436/3/1  434/4/1 
f  437/1/1  438/2/1  439/3/1  440/4/1 
f  438/1/1  441/2/1  442/3/1  439/4/1 
f  441/1/1  443/2/1  444/3/1  442/4/1 
f  443/1/1  445/2/1  446/3/1  444/4/1 
f  445/1/1  447/2/1  448/3/1  446/4/1 
f  447/1/1  449/2/1  450/3/1  448/4/1 
f  456/1/1  457/2/1  458/3/1  459/4/1 
f  464/1/1  467/2/1  468/3/1  465/4/1 
f  467/1/1  469/2/1  470/3/1  468/4/1 
f  469/1/1  471/2/1  385/3/1  470/4/1 
f  474/1/1  475/2/1  476/3/1  391/4/1 
f  475/1/1  477/2/1  478/3/1  476/4/1 
f  477/1/1  479/2/1  480/3/1  478/4/1 
f  479/1/1  481/2/1  482/3/1  480/4/1 
f  488/1/1  489/2/1  490/3/1  491/4/1 
f  497/1/1  498/2/1  499/3/1  486/4/1 
f  498/1/1  500/2/1  501/3/1  499/4/1 
f  500/1/1  502/2/1  503/3/1  501/4/1 
f  506/1/1  507/2/1  508/3/1  509/4/1 
f  557/1/1  560/2/1  561/3/1  558/4/1 
f  560/1/1  562/2/1  563/3/1  561/4/1 
f  562/1/1  564/2/1  565/3/1  563/4/1 
f  564/1/1  566/2/1  567/3/1  565/4/1 
f  566/1/1  568/2/1  569/3/1  567/4/1 
f  568/1/1  570/2/1  571/3/1  569/4/1 
f  570/1/1  572/2/1  573/3/1  571/4/1 
f  572/1/1  574/2/1  575/3/1  573/4/1 
f  574/1/1  576/2/1  577/3/1  575/4/1 
f  576/1/1  578/2/1  579/3/1  577/4/1 
f  578/1/1  580/2/1  581/3/1  579/4/1 
f  580/1/1  582/2/1  583/3/1  581/4/1 
f  582/1/1  584/2/1  585/3/1  583/4/1 
f  584/1/1  586/2/1  587/3/1  585/4/1 
f  586/1/1  588/2/1  589/3/1  587/4/1 
f  588/1/1  590/2/1  591/3/1  589/4/1 
f  590/1/1  592/2/1  542/3/1  591/4/1 
g mesh_[00]_[56]
f  39/1/1  41/2/1  42/3/1  40/4/1 
f  48/1/1  49/2/1  50/3/1  41/4/1 
f  62/1/1  63/2/1  64/3/1  49/4/1 
f  70/1/1  71/2/1  72/3/1  63/4/1 
f  78/1/1  79/2/1  80/3/1  71/4/1 
f  89/1/1  91/2/1  92/3/1  90/4/1 
f  98/1/1  99/2/1  100/3/1  79/4/1 
f  106/1/1  107/2/1  108/3/1  91/4/1 
f  114/1/1  115/2/1  116/3/1  99/4/1 
f  134/1/1  137/2/1  138/3/1  135/4/1 
f  144/1/1  145/2/1  146/3/1  107/4/1 
f  152/1/1  153/2/1  154/3/1  115/4/1 
f  160/1/1  161/2/1  162/3/1  137/4/1 
f  170/1/1  171/2/1  172/3/1  145/4/1 
f  184/1/1  185/2/1  186/3/1  153/4/1 
f  194/1/1  195/2/1  196/3/1  161/4/1 
f  224/1/1  225/2/1  226/3/1  171/4/1 
f  232/1/1  233/2/1  234/3/1  185/4/1 
f  244/1/1  245/2/1  246/3/1  225/4/1 
f  252/1/1  253/2/1  254/3/1  233/4/1 
f  272/1/1  273/2/1  274/3/1  245/4/1 
f  280/1/1  281/2/1  282/3/1  253/4/1 
f  294/1/1  295/2/1  296/3/1  273/4/1 
f  302/1/1  303/2/1  304/3/1  281/4/1 
f  317/1/1  319/2/1  320/3/1  318/4/1 
f  382/1/1  383/2/1  384/3/1  295/4/1 
f  390/1/1  391/2/1  392/3/1  303/4/1 
f  453/1/1  454/2/1  455/3/1  319/4/1 
f  485/1/1  486/2/1  487/3/1  454/4/1 
g mesh_[00]_[59]
f  44/1/1  46/2/1  2/3/1  1/4/1 
f  59/1/1  60/2/1  44/3/1  43/4/1 
f  66/1/1  68/2/1  52/3/1  51/4/1 
f  74/1/1  76/2/1  66/3/1  65/4/1 
f  94/1/1  96/2/1  74/3/1  73/4/1 
f  110/1/1  112/2/1  94/3/1  93/4/1 
f  148/1/1  150/2/1  110/3/1  109/4/1 
f  156/1/1  158/2/1  118/3/1  117/4/1 
f  181/1/1  182/2/1  148/3/1  147/4/1 
f  191/1/1  192/2/1  156/3/1  155/4/1 
f  228/1/1  230/2/1  174/3/1  173/4/1 
f  248/1/1  250/2/1  228/3/1  227/4/1 
f  276/1/1  278/2/1  248/3/1  247/4/1 
f  298/1/1  300/2/1  276/3/1  275/4/1 
f  386/1/1  388/2/1  298/3/1  297/4/1 
f  471/1/1  472/2/1  386/3/1  385/4/1 
f  493/1/1  495/2/1  464/3/1  463/4/1 
f  521/1/1  523/2/1  493/3/1  492/4/1 
f  525/1/1  527/2/1  521/3/1  520/4/1 
f  539/1/1  541/2/1  525/3/1  524/4/1 
f  543/1/1  545/2/1  539/3/1  538/4/1 
f  592/1/1  593/2/1  543/3/1  542/4/1 
g mesh_[00]_[60]
f  47/1/1  48/2/1  41/3/1  39/4/1 
f  61/1/1  62/2/1  49/3/1  48/4/1 
f  69/1/1  70/2/1  63/3/1  62/4/1 
f  77/1/1  78/2/1  71/3/1  70/4/1 
f  97/1/1  98/2/1  79/3/1  78/4/1 
f  105/1/1  106/2/1  91/3/1  89/4/1 
f  113/1/1  114/2/1  99/3/1  98/4/1 
f  143/1/1  144/2/1  107/3/1  106/4/1 
f  151/1/1  152/2/1  115/3/1  114/4/1 
f  159/1/1  160/2/1  137/3/1  134/4/1 
f  169/1/1  170/2/1  145/3/1  144/4/1 
f  183/1/1  184/2/1  153/3/1  152/4/1 
f  193/1/1  194/2/1  161/3/1  160/4/1 
f  223/1/1  224/2/1  171/3/1  170/4/1 
f  231/1/1  232/2/1  185/3/1  184/4/1 
f  235/1/1  236/2/1  195/3/1  194/4/1 
f  243/1/1  244/2/1  225/3/1  224/4/1 
f  251/1/1  252/2/1  233/3/1  232/4/1 
f  271/1/1  272/2/1  245/3/1  244/4/1 
f  279/1/1  280/2/1  253/3/1  252/4/1 
f  293/1/1  294/2/1  273/3/1  272/4/1 
f  301/1/1  302/2/1  281/3/1  280/4/1 
f  381/1/1  382/2/1  295/3/1  294/4/1 
f  389/1/1  390/2/1  303/3/1  302/4/1 
f  452/1/1  453/2/1  319/3/1  317/4/1 
f  473/1/1  474/2/1  391/3/1  390/4/1 
f  484/1/1  485/2/1  454/3/1  453/4/1 
f  496/1/1  497/2/1  486/3/1  485/4/1 
g mesh_[00]_[48]
f  187/1/1  188/2/1  189/3/1  190/4/1 
f  309/1/1  310/2/1  311/3/1  312/4/1 
f  349/1/1  350/2/1  351/3/1  352/4/1 
f  357/1/1  358/2/1  359/3/1  360/4/1 
f  365/1/1  366/2/1  367/3/1  368/4/1 
f  373/1/1  374/2/1  375/3/1  376/4/1 
f  393/1/1  394/2/1  395/3/1  396/4/1 
f  556/1/1  557/2/1  558/3/1  559/4/1 
g mesh_[00]_[55]
f  197/1/1  198/2/1  199/3/1  200/4/1 
f  198/1/1  201/2/1  202/3/1  199/4/1 
f  201/1/1  203/2/1  204/3/1  202/4/1 
f  203/1/1  205/2/1  206/3/1  204/4/1 
f  205/1/1  207/2/1  208/3/1  206/4/1 
f  207/1/1  209/2/1  210/3/1  208/4/1 
f  209/1/1  211/2/1  212/3/1  210/4/1 
f  211/1/1  213/2/1  214/3/1  212/4/1 
f  213/1/1  215/2/1  216/3/1  214/4/1 
f  215/1/1  217/2/1  218/3/1  216/4/1 
f  451/1/1  452/2/1  317/3/1  315/4/1 
f  483/1/1  484/2/1  453/3/1  452/4/1 
g mesh_[00]_[52]
f  236/1/1  237/2/1  238/3/1  195/4/1 
f  345/1/1  347/2/1  348/3/1  346/4/1 
f  353/1/1  355/2/1  356/3/1  354/4/1 
f  361/1/1  363/2/1  364/3/1  362/4/1 
f  369/1/1  371/2/1  372/3/1  370/4/1 
f  377/1/1  379/2/1  380/3/1  378/4/1 
f  502/1/1  504/2/1  505/3/1  503/4/1 
g mesh_[00]_[61]
f  460/1/1  461/2/1  462/3/1  382/4/1 
g mesh_[00]_[66]
f  510/1/1  511/2/1  512/3/1  513/4/1 
f  528/1/1  529/2/1  530/3/1  531/4/1 
f  546/1/1  547/2/1  548/3/1  549/4/1 
g mesh_[00]_[67]
f  511/1/1  514/2/1  515/3/1  516/4/1 
f  529/1/1  532/2/1  533/3/1  534/4/1 
f  547/1/1  550/2/1  551/3/1  552/4/1 
g mesh_[00]_[70]
f  514/1/1  517/2/1  518/3/1  519/4/1 
f  532/1/1  535/2/1  536/3/1  537/4/1 
f  550/1/1  553/2/1  554/3/1  555/4/1 
g mesh_[02]_[05]
f  395/1/1  594/2/1  595/3/1  596/4/1 
f  404/1/1  597/2/1  598/3/1  599/4/1 
f  410/1/1  600/2/1  601/3/1  602/4/1 
g mesh_[02]_[76]
f  480/1/1  603/2/1  604/3/1  605/4/1 
