# Wavefront OBJ file automatically generated by Tiled2Unity

# Vertices (Count = 725)
v -24832 -4096 0
v -24960 -4096 0
v -24960 -3968 0
v -24832 -3968 0
v -25088 -4096 0
v -25088 -3968 0
v -25216 -4096 0
v -25216 -3968 0
v -25344 -4096 0
v -25472 -4096 0
v -25472 -3968 0
v -25344 -3968 0
v -25600 -4096 0
v -25600 -3968 0
v -24704 -4224 0
v -24832 -4224 0
v -24704 -4096 0
v -24960 -4224 0
v -25728 -4224 0
v -25856 -4224 0
v -25856 -4096 0
v -25728 -4096 0
v -24192 -4352 0
v -24320 -4352 0
v -24320 -4224 0
v -24192 -4224 0
v -24448 -4352 0
v -24448 -4224 0
v -24576 -4352 0
v -24704 -4352 0
v -24576 -4224 0
v -24832 -4352 0
v -24192 -4480 0
v -24320 -4480 0
v -26112 -4480 0
v -26240 -4480 0
v -26240 -4352 0
v -26112 -4352 0
v -23936 -4608 0
v -24064 -4608 0
v -24064 -4480 0
v -23936 -4480 0
v -15360 -4736 0
v -15488 -4736 0
v -15488 -4608 0
v -15360 -4608 0
v -15616 -4736 0
v -15616 -4608 0
v -15744 -4736 0
v -15744 -4608 0
v -15872 -4736 0
v -15872 -4608 0
v -16000 -4736 0
v -16000 -4608 0
v -23936 -4736 0
v -24064 -4736 0
v -26496 -4736 0
v -26624 -4736 0
v -26624 -4608 0
v -26496 -4608 0
v -27008 -4736 0
v -27136 -4736 0
v -27136 -4608 0
v -27008 -4608 0
v -27520 -4736 0
v -27648 -4736 0
v -27648 -4608 0
v -27520 -4608 0
v -27776 -4736 0
v -27776 -4608 0
v -27904 -4736 0
v -27904 -4608 0
v -28032 -4736 0
v -28032 -4608 0
v -15104 -4864 0
v -15232 -4864 0
v -15232 -4736 0
v -15104 -4736 0
v -15872 -4864 0
v -16000 -4864 0
v -16128 -4864 0
v -16128 -4736 0
v -23680 -4864 0
v -23808 -4864 0
v -23808 -4736 0
v -23680 -4736 0
v -27904 -4864 0
v -28032 -4864 0
v -6016 -4992 0
v -6144 -4992 0
v -6144 -4864 0
v -6016 -4864 0
v -6272 -4992 0
v -6272 -4864 0
v -6400 -4992 0
v -6400 -4864 0
v -6528 -4992 0
v -6528 -4864 0
v -6656 -4992 0
v -6656 -4864 0
v -6912 -4992 0
v -7040 -4992 0
v -7040 -4864 0
v -6912 -4864 0
v -7296 -4992 0
v -7424 -4992 0
v -7424 -4864 0
v -7296 -4864 0
v -7552 -4992 0
v -7552 -4864 0
v -14848 -4992 0
v -14976 -4992 0
v -14976 -4864 0
v -14848 -4864 0
v -16000 -4992 0
v -16128 -4992 0
v -16256 -4992 0
v -16256 -4864 0
v -23552 -4992 0
v -23680 -4992 0
v -23552 -4864 0
v -23808 -4992 0
v -5888 -5120 0
v -6016 -5120 0
v -5888 -4992 0
v -6144 -5120 0
v -7424 -5120 0
v -7552 -5120 0
v -7680 -5120 0
v -7680 -4992 0
v -14464 -5120 0
v -14592 -5120 0
v -14592 -4992 0
v -14464 -4992 0
v -14720 -5120 0
v -14720 -4992 0
v -16128 -5120 0
v -16256 -5120 0
v -16384 -5120 0
v -16384 -4992 0
v -23168 -5120 0
v -23296 -5120 0
v -23296 -4992 0
v -23168 -4992 0
v -23424 -5120 0
v -23552 -5120 0
v -23424 -4992 0
v -23680 -5120 0
v -28160 -5120 0
v -28288 -5120 0
v -28288 -4992 0
v -28160 -4992 0
v -28416 -5120 0
v -28416 -4992 0
v -5632 -5248 0
v -5760 -5248 0
v -5760 -5120 0
v -5632 -5120 0
v -5888 -5248 0
v -6016 -5248 0
v -7552 -5248 0
v -7680 -5248 0
v -7808 -5248 0
v -7808 -5120 0
v -8448 -5248 0
v -8576 -5248 0
v -8576 -5120 0
v -8448 -5120 0
v -8704 -5248 0
v -8704 -5120 0
v -8832 -5248 0
v -8832 -5120 0
v -8960 -5248 0
v -8960 -5120 0
v -9088 -5248 0
v -9088 -5120 0
v -9216 -5248 0
v -9216 -5120 0
v -9344 -5248 0
v -9344 -5120 0
v -9472 -5248 0
v -9472 -5120 0
v -9600 -5248 0
v -9600 -5120 0
v -9728 -5248 0
v -9728 -5120 0
v -14080 -5248 0
v -14208 -5248 0
v -14208 -5120 0
v -14080 -5120 0
v -16256 -5248 0
v -16384 -5248 0
v -16512 -5248 0
v -16512 -5120 0
v -22912 -5248 0
v -23040 -5248 0
v -23040 -5120 0
v -22912 -5120 0
v -28288 -5248 0
v -28416 -5248 0
v -28544 -5248 0
v -28544 -5120 0
v -5248 -5376 0
v -5376 -5376 0
v -5376 -5248 0
v -5248 -5248 0
v -7680 -5376 0
v -7808 -5376 0
v -7936 -5376 0
v -7936 -5248 0
v -13824 -5376 0
v -13952 -5376 0
v -13952 -5248 0
v -13824 -5248 0
v -16384 -5376 0
v -16512 -5376 0
v -16640 -5376 0
v -16640 -5248 0
v -22912 -5376 0
v -23040 -5376 0
v -28416 -5376 0
v -28544 -5376 0
v -4864 -5504 0
v -4992 -5504 0
v -4992 -5376 0
v -4864 -5376 0
v -5120 -5504 0
v -5120 -5376 0
v -13440 -5504 0
v -13568 -5504 0
v -13568 -5376 0
v -13440 -5376 0
v -13696 -5504 0
v -13696 -5376 0
v -16512 -5504 0
v -16640 -5504 0
v -16768 -5504 0
v -16768 -5376 0
v -22656 -5504 0
v -22784 -5504 0
v -22784 -5376 0
v -22656 -5376 0
v -28672 -5504 0
v -28800 -5504 0
v -28800 -5376 0
v -28672 -5376 0
v -4480 -5632 0
v -4608 -5632 0
v -4608 -5504 0
v -4480 -5504 0
v -4736 -5632 0
v -4736 -5504 0
v -13056 -5632 0
v -13184 -5632 0
v -13184 -5504 0
v -13056 -5504 0
v -13312 -5632 0
v -13312 -5504 0
v -16640 -5632 0
v -16768 -5632 0
v -16896 -5632 0
v -16896 -5504 0
v -22656 -5632 0
v -22784 -5632 0
v -28672 -5632 0
v -28800 -5632 0
v -28928 -5632 0
v -28928 -5504 0
v -31872 -5632 0
v -32000 -5632 0
v -32000 -5504 0
v -31872 -5504 0
v -32384 -5632 0
v -32512 -5632 0
v -32512 -5504 0
v -32384 -5504 0
v -32640 -5632 0
v -32640 -5504 0
v -32768 -5632 0
v -32768 -5504 0
v -32896 -5632 0
v -32896 -5504 0
v -33024 -5632 0
v -33024 -5504 0
v -33152 -5632 0
v -33152 -5504 0
v -33280 -5632 0
v -33280 -5504 0
v -33408 -5632 0
v -33408 -5504 0
v -33536 -5632 0
v -33536 -5504 0
v -33664 -5632 0
v -33664 -5504 0
v -4096 -5760 0
v -4224 -5760 0
v -4224 -5632 0
v -4096 -5632 0
v -4352 -5760 0
v -4352 -5632 0
v -5376 -5760 0
v -5504 -5760 0
v -5504 -5632 0
v -5376 -5632 0
v -5632 -5760 0
v -5632 -5632 0
v -5760 -5760 0
v -5760 -5632 0
v -5888 -5760 0
v -5888 -5632 0
v -6016 -5760 0
v -6016 -5632 0
v -8064 -5760 0
v -8192 -5760 0
v -8192 -5632 0
v -8064 -5632 0
v -8320 -5760 0
v -8320 -5632 0
v -8448 -5760 0
v -8448 -5632 0
v -8576 -5760 0
v -8576 -5632 0
v -8704 -5760 0
v -8704 -5632 0
v -8832 -5760 0
v -8832 -5632 0
v -8960 -5760 0
v -8960 -5632 0
v -9088 -5760 0
v -9088 -5632 0
v -9216 -5760 0
v -9216 -5632 0
v -9344 -5760 0
v -9344 -5632 0
v -9472 -5760 0
v -9472 -5632 0
v -9600 -5760 0
v -9600 -5632 0
v -9728 -5760 0
v -9728 -5632 0
v -9856 -5760 0
v -9856 -5632 0
v -10240 -5760 0
v -10368 -5760 0
v -10368 -5632 0
v -10240 -5632 0
v -10496 -5760 0
v -10496 -5632 0
v -10624 -5760 0
v -10624 -5632 0
v -11008 -5760 0
v -11136 -5760 0
v -11136 -5632 0
v -11008 -5632 0
v -11264 -5760 0
v -11264 -5632 0
v -11392 -5760 0
v -11392 -5632 0
v -11776 -5760 0
v -11904 -5760 0
v -11904 -5632 0
v -11776 -5632 0
v -12032 -5760 0
v -12032 -5632 0
v -12160 -5760 0
v -12160 -5632 0
v -12544 -5760 0
v -12672 -5760 0
v -12672 -5632 0
v -12544 -5632 0
v -12800 -5760 0
v -12800 -5632 0
v -12928 -5760 0
v -12928 -5632 0
v -16768 -5760 0
v -16896 -5760 0
v -17024 -5760 0
v -17024 -5632 0
v -22400 -5760 0
v -22528 -5760 0
v -22528 -5632 0
v -22400 -5632 0
v -28800 -5760 0
v -28928 -5760 0
v -29056 -5760 0
v -29056 -5632 0
v -31616 -5760 0
v -31744 -5760 0
v -31744 -5632 0
v -31616 -5632 0
v 0 -5888 0
v -128 -5888 0
v -128 -5760 0
v 0 -5760 0
v -256 -5888 0
v -256 -5760 0
v -384 -5888 0
v -384 -5760 0
v -512 -5888 0
v -512 -5760 0
v -640 -5888 0
v -640 -5760 0
v -768 -5888 0
v -768 -5760 0
v -896 -5888 0
v -896 -5760 0
v -1024 -5888 0
v -1024 -5760 0
v -1152 -5888 0
v -1152 -5760 0
v -1408 -5888 0
v -1536 -5888 0
v -1536 -5760 0
v -1408 -5760 0
v -1664 -5888 0
v -1664 -5760 0
v -1792 -5888 0
v -1792 -5760 0
v -1920 -5888 0
v -2048 -5888 0
v -2048 -5760 0
v -1920 -5760 0
v -2176 -5888 0
v -2176 -5760 0
v -2304 -5888 0
v -2432 -5888 0
v -2432 -5760 0
v -2304 -5760 0
v -2560 -5888 0
v -2560 -5760 0
v -2944 -5888 0
v -3072 -5888 0
v -3072 -5760 0
v -2944 -5760 0
v -3200 -5888 0
v -3200 -5760 0
v -3328 -5888 0
v -3328 -5760 0
v -3456 -5888 0
v -3456 -5760 0
v -3584 -5888 0
v -3584 -5760 0
v -3712 -5888 0
v -3712 -5760 0
v -3840 -5888 0
v -3840 -5760 0
v -3968 -5888 0
v -3968 -5760 0
v -5760 -5888 0
v -5888 -5888 0
v -6016 -5888 0
v -6144 -5888 0
v -6144 -5760 0
v -7808 -5888 0
v -7936 -5888 0
v -7936 -5760 0
v -7808 -5760 0
v -16896 -5888 0
v -17025 -5888 0
v -17025 -5760 0
v -22016 -5888 0
v -22144 -5888 0
v -22144 -5760 0
v -22016 -5760 0
v -22272 -5888 0
v -22272 -5760 0
v -22400 -5888 0
v -22528 -5888 0
v -28928 -5888 0
v -29056 -5888 0
v -29312 -5888 0
v -29440 -5888 0
v -29440 -5760 0
v -29312 -5760 0
v -29568 -5888 0
v -29568 -5760 0
v -29824 -5888 0
v -29952 -5888 0
v -29952 -5760 0
v -29824 -5760 0
v -30336 -5888 0
v -30464 -5888 0
v -30464 -5760 0
v -30336 -5760 0
v -30848 -5888 0
v -30976 -5888 0
v -30976 -5760 0
v -30848 -5760 0
v -31360 -5888 0
v -31488 -5888 0
v -31488 -5760 0
v -31360 -5760 0
v -5888 -6016 0
v -6016 -6016 0
v -6144 -6016 0
v -6272 -6016 0
v -6272 -5888 0
v -7552 -6016 0
v -7680 -6016 0
v -7680 -5888 0
v -7552 -5888 0
v -21760 -6016 0
v -21888 -6016 0
v -21888 -5888 0
v -21760 -5888 0
v -6144 -6144 0
v -6272 -6144 0
v -6400 -6144 0
v -6400 -6016 0
v -6528 -6144 0
v -6528 -6016 0
v -6656 -6144 0
v -6656 -6016 0
v -6784 -6144 0
v -6784 -6016 0
v -7040 -6144 0
v -7168 -6144 0
v -7168 -6016 0
v -7040 -6016 0
v -7296 -6144 0
v -7296 -6016 0
v -7424 -6144 0
v -7424 -6016 0
v -17152 -6144 0
v -17280 -6144 0
v -17280 -6034 0
v -17152 -6034 0
v -17408 -6144 0
v -17408 -6032 0
v -17280 -6032 0
v -17536 -6144 0
v -17536 -6031 0
v -17408 -6031 0
v -21632 -6144 0
v -21760 -6144 0
v -21632 -6016 0
v -21888 -6144 0
v -21632 -6272 0
v -21760 -6272 0
v -17664 -6400 0
v -17792 -6400 0
v -17792 -6290 0
v -17664 -6290 0
v -17920 -6400 0
v -17920 -6288 0
v -17792 -6288 0
v -18048 -6400 0
v -18048 -6287 0
v -17920 -6287 0
v -21376 -6400 0
v -21504 -6400 0
v -21504 -6272 0
v -21376 -6272 0
v -19456 -6528 0
v -19584 -6528 0
v -19584 -6400 0
v -19456 -6400 0
v -20224 -6528 0
v -20352 -6528 0
v -20352 -6400 0
v -20224 -6400 0
v -20992 -6528 0
v -21120 -6528 0
v -21120 -6400 0
v -20992 -6400 0
v -21248 -6528 0
v -21376 -6528 0
v -21248 -6400 0
v -21504 -6528 0
v -18176 -6656 0
v -18304 -6656 0
v -18304 -6546 0
v -18176 -6546 0
v -18432 -6656 0
v -18432 -6544 0
v -18304 -6544 0
v -18560 -6656 0
v -18560 -6543 0
v -18432 -6543 0
v -18944 -6656 0
v -19072 -6656 0
v -19072 -6528 0
v -18944 -6528 0
v -19200 -6656 0
v -19200 -6528 0
v -19328 -6656 0
v -19328 -6528 0
v -19712 -6656 0
v -19840 -6656 0
v -19840 -6528 0
v -19712 -6528 0
v -19968 -6656 0
v -19968 -6528 0
v -20096 -6656 0
v -20096 -6528 0
v -20480 -6656 0
v -20608 -6656 0
v -20608 -6528 0
v -20480 -6528 0
v -20736 -6656 0
v -20736 -6528 0
v -20864 -6656 0
v -20864 -6528 0
v -21248 -6656 0
v -21376 -6656 0
v -25284 -3968 0
v -25284 -3713 0
v -25088 -3713 0
v -24394 -4224 0
v -24394 -4177 0
v -24320 -4177 0
v -15691 -4608 0
v -15691 -4522 0
v -15616 -4522 0
v -27844 -4608 0
v -27844 -4353 0
v -27648 -4353 0
v -6726 -4864 0
v -6726 -4609 0
v -6528 -4609 0
v -7388 -4864 0
v -7388 -4811 0
v -7296 -4811 0
v -14922 -4864 0
v -14922 -4817 0
v -14848 -4817 0
v -14538 -4992 0
v -14538 -4945 0
v -14464 -4945 0
v -23366 -4992 0
v -23366 -4737 0
v -23168 -4737 0
v -28269 -4992 0
v -28269 -4953 0
v -28160 -4953 0
v -5958 -5120 0
v -5958 -4865 0
v -5760 -4865 0
v -5062 -5376 0
v -5062 -5121 0
v -4864 -5121 0
v -13514 -5376 0
v -13514 -5329 0
v -13440 -5329 0
v -13642 -5376 0
v -13642 -5329 0
v -13568 -5329 0
v -13130 -5504 0
v -13130 -5457 0
v -13056 -5457 0
v -13258 -5504 0
v -13258 -5457 0
v -13184 -5457 0
v -5956 -5632 0
v -5956 -5377 0
v -5760 -5377 0
v -8644 -5632 0
v -8644 -5377 0
v -8448 -5377 0
v -9156 -5632 0
v -9156 -5377 0
v -8960 -5377 0
v -9668 -5632 0
v -9668 -5377 0
v -9472 -5377 0
v -10461 -5632 0
v -10461 -5579 0
v -10368 -5579 0
v -11230 -5632 0
v -11230 -5579 0
v -11136 -5579 0
v -202 -5760 0
v -202 -5713 0
v -128 -5713 0
v -714 -5760 0
v -714 -5713 0
v -640 -5713 0
v -1098 -5760 0
v -1098 -5713 0
v -1024 -5713 0
v -1604 -5760 0
v -1604 -5505 0
v -1408 -5505 0
v -1993 -5760 0
v -1993 -5692 0
v -1920 -5692 0
v -2376 -5760 0
v -2376 -5693 0
v -2304 -5693 0
v -3157 -5760 0
v -3157 -5726 0
v -3072 -5726 0
v -3422 -5760 0
v -3422 -5707 0
v -3328 -5707 0
v -3934 -5760 0
v -3934 -5707 0
v -3840 -5707 0
v -22346 -5760 0
v -22346 -5713 0
v -22272 -5713 0
v -29421 -5760 0
v -29421 -5721 0
v -29312 -5721 0
v -6596 -6016 0
v -6596 -5761 0
v -6400 -5761 0
v -7243 -6016 0
v -7243 -5930 0
v -7168 -5930 0
v -21066 -6400 0
v -21066 -6353 0
v -20992 -6353 0
v -19018 -6528 0
v -19018 -6481 0
v -18944 -6481 0
v -19786 -6528 0
v -19786 -6481 0
v -19712 -6481 0
v -20042 -6528 0
v -20042 -6481 0
v -19968 -6481 0
v -20682 -6528 0
v -20682 -6481 0
v -20608 -6481 0

# Texture Coorindates (Count = 4)
vt 0.0001220703 0.0001220703
vt 0.9998779 0.0001220703
vt 0.9998779 0.9998779
vt 0.0001220703 0.9998779

# Normal
vn 0 0 -1

# Groups (Count = 24)
g mesh_[00]_[54]
f  1/1/1  2/2/1  3/3/1  4/4/1 
f  15/1/1  16/2/1  1/3/1  17/4/1 
f  23/1/1  24/2/1  25/3/1  26/4/1 
f  39/1/1  40/2/1  41/3/1  42/4/1 
f  83/1/1  84/2/1  85/3/1  86/4/1 
f  89/1/1  90/2/1  91/3/1  92/4/1 
f  119/1/1  120/2/1  83/3/1  121/4/1 
f  123/1/1  124/2/1  89/3/1  125/4/1 
f  195/1/1  196/2/1  197/3/1  198/4/1 
f  239/1/1  240/2/1  241/3/1  242/4/1 
f  379/1/1  380/2/1  381/3/1  382/4/1 
f  502/1/1  503/2/1  504/3/1  505/4/1 
f  534/1/1  535/2/1  502/3/1  536/4/1 
f  550/1/1  551/2/1  552/3/1  553/4/1 
f  566/1/1  567/2/1  550/3/1  568/4/1 
g mesh_[00]_[50]
f  2/1/1  5/2/1  6/3/1  3/4/1 
f  5/1/1  7/2/1  8/3/1  6/4/1 
f  9/1/1  10/2/1  11/3/1  12/4/1 
f  10/1/1  13/2/1  14/3/1  11/4/1 
f  19/1/1  20/2/1  21/3/1  22/4/1 
f  24/1/1  27/2/1  28/3/1  25/4/1 
f  29/1/1  30/2/1  15/3/1  31/4/1 
f  35/1/1  36/2/1  37/3/1  38/4/1 
f  43/1/1  44/2/1  45/3/1  46/4/1 
f  44/1/1  47/2/1  48/3/1  45/4/1 
f  47/1/1  49/2/1  50/3/1  48/4/1 
f  49/1/1  51/2/1  52/3/1  50/4/1 
f  57/1/1  58/2/1  59/3/1  60/4/1 
f  61/1/1  62/2/1  63/3/1  64/4/1 
f  65/1/1  66/2/1  67/3/1  68/4/1 
f  66/1/1  69/2/1  70/3/1  67/4/1 
f  69/1/1  71/2/1  72/3/1  70/4/1 
f  75/1/1  76/2/1  77/3/1  78/4/1 
f  90/1/1  93/2/1  94/3/1  91/4/1 
f  93/1/1  95/2/1  96/3/1  94/4/1 
f  95/1/1  97/2/1  98/3/1  96/4/1 
f  97/1/1  99/2/1  100/3/1  98/4/1 
f  101/1/1  102/2/1  103/3/1  104/4/1 
f  105/1/1  106/2/1  107/3/1  108/4/1 
f  111/1/1  112/2/1  113/3/1  114/4/1 
f  131/1/1  132/2/1  133/3/1  134/4/1 
f  132/1/1  135/2/1  136/3/1  133/4/1 
f  141/1/1  142/2/1  143/3/1  144/4/1 
f  145/1/1  146/2/1  119/3/1  147/4/1 
f  149/1/1  150/2/1  151/3/1  152/4/1 
f  156/1/1  159/2/1  123/3/1  157/4/1 
f  187/1/1  188/2/1  189/3/1  190/4/1 
f  203/1/1  204/2/1  205/3/1  206/4/1 
f  211/1/1  212/2/1  213/3/1  214/4/1 
f  223/1/1  224/2/1  225/3/1  226/4/1 
f  224/1/1  227/2/1  228/3/1  225/4/1 
f  229/1/1  230/2/1  231/3/1  232/4/1 
f  230/1/1  233/2/1  234/3/1  231/4/1 
f  247/1/1  248/2/1  249/3/1  250/4/1 
f  248/1/1  251/2/1  252/3/1  249/4/1 
f  253/1/1  254/2/1  255/3/1  256/4/1 
f  254/1/1  257/2/1  258/3/1  255/4/1 
f  269/1/1  270/2/1  271/3/1  272/4/1 
f  273/1/1  274/2/1  275/3/1  276/4/1 
f  274/1/1  277/2/1  278/3/1  275/4/1 
f  277/1/1  279/2/1  280/3/1  278/4/1 
f  279/1/1  281/2/1  282/3/1  280/4/1 
f  281/1/1  283/2/1  284/3/1  282/4/1 
f  283/1/1  285/2/1  286/3/1  284/4/1 
f  285/1/1  287/2/1  288/3/1  286/4/1 
f  287/1/1  289/2/1  290/3/1  288/4/1 
f  289/1/1  291/2/1  292/3/1  290/4/1 
f  291/1/1  293/2/1  294/3/1  292/4/1 
f  295/1/1  296/2/1  297/3/1  298/4/1 
f  296/1/1  299/2/1  300/3/1  297/4/1 
f  302/1/1  305/2/1  306/3/1  303/4/1 
f  305/1/1  307/2/1  308/3/1  306/4/1 
f  307/1/1  309/2/1  310/3/1  308/4/1 
f  313/1/1  314/2/1  315/3/1  316/4/1 
f  314/1/1  317/2/1  318/3/1  315/4/1 
f  317/1/1  319/2/1  320/3/1  318/4/1 
f  319/1/1  321/2/1  322/3/1  320/4/1 
f  321/1/1  323/2/1  324/3/1  322/4/1 
f  323/1/1  325/2/1  326/3/1  324/4/1 
f  325/1/1  327/2/1  328/3/1  326/4/1 
f  327/1/1  329/2/1  330/3/1  328/4/1 
f  329/1/1  331/2/1  332/3/1  330/4/1 
f  331/1/1  333/2/1  334/3/1  332/4/1 
f  333/1/1  335/2/1  336/3/1  334/4/1 
f  335/1/1  337/2/1  338/3/1  336/4/1 
f  337/1/1  339/2/1  340/3/1  338/4/1 
f  344/1/1  347/2/1  348/3/1  345/4/1 
f  352/1/1  355/2/1  356/3/1  353/4/1 
f  360/1/1  363/2/1  364/3/1  361/4/1 
f  368/1/1  371/2/1  372/3/1  369/4/1 
f  387/1/1  388/2/1  389/3/1  390/4/1 
f  392/1/1  395/2/1  396/3/1  393/4/1 
f  395/1/1  397/2/1  398/3/1  396/4/1 
f  397/1/1  399/2/1  400/3/1  398/4/1 
f  399/1/1  401/2/1  402/3/1  400/4/1 
f  401/1/1  403/2/1  404/3/1  402/4/1 
f  403/1/1  405/2/1  406/3/1  404/4/1 
f  405/1/1  407/2/1  408/3/1  406/4/1 
f  407/1/1  409/2/1  410/3/1  408/4/1 
f  411/1/1  412/2/1  413/3/1  414/4/1 
f  412/1/1  415/2/1  416/3/1  413/4/1 
f  415/1/1  417/2/1  418/3/1  416/4/1 
f  419/1/1  420/2/1  421/3/1  422/4/1 
f  420/1/1  423/2/1  424/3/1  421/4/1 
f  425/1/1  426/2/1  427/3/1  428/4/1 
f  426/1/1  429/2/1  430/3/1  427/4/1 
f  431/1/1  432/2/1  433/3/1  434/4/1 
f  432/1/1  435/2/1  436/3/1  433/4/1 
f  435/1/1  437/2/1  438/3/1  436/4/1 
f  437/1/1  439/2/1  440/3/1  438/4/1 
f  439/1/1  441/2/1  442/3/1  440/4/1 
f  441/1/1  443/2/1  444/3/1  442/4/1 
f  443/1/1  445/2/1  446/3/1  444/4/1 
f  445/1/1  447/2/1  448/3/1  446/4/1 
f  454/1/1  455/2/1  456/3/1  457/4/1 
f  461/1/1  462/2/1  463/3/1  464/4/1 
f  462/1/1  465/2/1  466/3/1  463/4/1 
f  465/1/1  467/2/1  379/3/1  466/4/1 
f  471/1/1  472/2/1  473/3/1  474/4/1 
f  472/1/1  475/2/1  476/3/1  473/4/1 
f  477/1/1  478/2/1  479/3/1  480/4/1 
f  481/1/1  482/2/1  483/3/1  484/4/1 
f  485/1/1  486/2/1  487/3/1  488/4/1 
f  489/1/1  490/2/1  491/3/1  492/4/1 
f  498/1/1  499/2/1  500/3/1  501/4/1 
f  507/1/1  508/2/1  509/3/1  496/4/1 
f  508/1/1  510/2/1  511/3/1  509/4/1 
f  510/1/1  512/2/1  513/3/1  511/4/1 
f  516/1/1  517/2/1  518/3/1  519/4/1 
f  517/1/1  520/2/1  521/3/1  518/4/1 
f  520/1/1  522/2/1  523/3/1  521/4/1 
f  554/1/1  555/2/1  556/3/1  557/4/1 
f  558/1/1  559/2/1  560/3/1  561/4/1 
f  562/1/1  563/2/1  564/3/1  565/4/1 
f  581/1/1  584/2/1  585/3/1  582/4/1 
f  584/1/1  586/2/1  587/3/1  585/4/1 
f  588/1/1  589/2/1  590/3/1  591/4/1 
f  589/1/1  592/2/1  593/3/1  590/4/1 
f  592/1/1  594/2/1  595/3/1  593/4/1 
f  596/1/1  597/2/1  598/3/1  599/4/1 
f  597/1/1  600/2/1  601/3/1  598/4/1 
f  600/1/1  602/2/1  603/3/1  601/4/1 
g mesh_[00]_[59]
f  16/1/1  18/2/1  2/3/1  1/4/1 
f  30/1/1  32/2/1  16/3/1  15/4/1 
f  33/1/1  34/2/1  24/3/1  23/4/1 
f  55/1/1  56/2/1  40/3/1  39/4/1 
f  120/1/1  122/2/1  84/3/1  83/4/1 
f  124/1/1  126/2/1  90/3/1  89/4/1 
f  146/1/1  148/2/1  120/3/1  119/4/1 
f  159/1/1  160/2/1  124/3/1  123/4/1 
f  219/1/1  220/2/1  196/3/1  195/4/1 
f  263/1/1  264/2/1  240/3/1  239/4/1 
f  467/1/1  468/2/1  380/3/1  379/4/1 
f  535/1/1  537/2/1  503/3/1  502/4/1 
f  538/1/1  539/2/1  535/3/1  534/4/1 
f  567/1/1  569/2/1  551/3/1  550/4/1 
f  604/1/1  605/2/1  567/3/1  566/4/1 
g mesh_[00]_[56]
f  51/1/1  53/2/1  54/3/1  52/4/1 
f  71/1/1  73/2/1  74/3/1  72/4/1 
f  80/1/1  81/2/1  82/3/1  53/4/1 
f  106/1/1  109/2/1  110/3/1  107/4/1 
f  116/1/1  117/2/1  118/3/1  81/4/1 
f  128/1/1  129/2/1  130/3/1  109/4/1 
f  138/1/1  139/2/1  140/3/1  117/4/1 
f  150/1/1  153/2/1  154/3/1  151/4/1 
f  162/1/1  163/2/1  164/3/1  129/4/1 
f  192/1/1  193/2/1  194/3/1  139/4/1 
f  200/1/1  201/2/1  202/3/1  153/4/1 
f  216/1/1  217/2/1  218/3/1  193/4/1 
f  236/1/1  237/2/1  238/3/1  217/4/1 
f  243/1/1  244/2/1  245/3/1  246/4/1 
f  260/1/1  261/2/1  262/3/1  237/4/1 
f  266/1/1  267/2/1  268/3/1  244/4/1 
f  309/1/1  311/2/1  312/3/1  310/4/1 
f  376/1/1  377/2/1  378/3/1  261/4/1 
f  384/1/1  385/2/1  386/3/1  267/4/1 
f  451/1/1  452/2/1  453/3/1  311/4/1 
f  495/1/1  496/2/1  497/3/1  452/4/1 
g mesh_[00]_[60]
f  79/1/1  80/2/1  53/3/1  51/4/1 
f  87/1/1  88/2/1  73/3/1  71/4/1 
f  115/1/1  116/2/1  81/3/1  80/4/1 
f  127/1/1  128/2/1  109/3/1  106/4/1 
f  137/1/1  138/2/1  117/3/1  116/4/1 
f  161/1/1  162/2/1  129/3/1  128/4/1 
f  191/1/1  192/2/1  139/3/1  138/4/1 
f  199/1/1  200/2/1  153/3/1  150/4/1 
f  207/1/1  208/2/1  163/3/1  162/4/1 
f  215/1/1  216/2/1  193/3/1  192/4/1 
f  221/1/1  222/2/1  201/3/1  200/4/1 
f  235/1/1  236/2/1  217/3/1  216/4/1 
f  259/1/1  260/2/1  237/3/1  236/4/1 
f  265/1/1  266/2/1  244/3/1  243/4/1 
f  375/1/1  376/2/1  261/3/1  260/4/1 
f  383/1/1  384/2/1  267/3/1  266/4/1 
f  450/1/1  451/2/1  311/3/1  309/4/1 
f  469/1/1  470/2/1  385/3/1  384/4/1 
f  494/1/1  495/2/1  452/3/1  451/4/1 
f  506/1/1  507/2/1  496/3/1  495/4/1 
g mesh_[00]_[48]
f  155/1/1  156/2/1  157/3/1  158/4/1 
f  301/1/1  302/2/1  303/3/1  304/4/1 
f  343/1/1  344/2/1  345/3/1  346/4/1 
f  351/1/1  352/2/1  353/3/1  354/4/1 
f  359/1/1  360/2/1  361/3/1  362/4/1 
f  367/1/1  368/2/1  369/3/1  370/4/1 
f  391/1/1  392/2/1  393/3/1  394/4/1 
f  580/1/1  581/2/1  582/3/1  583/4/1 
g mesh_[00]_[55]
f  165/1/1  166/2/1  167/3/1  168/4/1 
f  166/1/1  169/2/1  170/3/1  167/4/1 
f  169/1/1  171/2/1  172/3/1  170/4/1 
f  171/1/1  173/2/1  174/3/1  172/4/1 
f  173/1/1  175/2/1  176/3/1  174/4/1 
f  175/1/1  177/2/1  178/3/1  176/4/1 
f  177/1/1  179/2/1  180/3/1  178/4/1 
f  179/1/1  181/2/1  182/3/1  180/4/1 
f  181/1/1  183/2/1  184/3/1  182/4/1 
f  183/1/1  185/2/1  186/3/1  184/4/1 
f  449/1/1  450/2/1  309/3/1  307/4/1 
f  493/1/1  494/2/1  451/3/1  450/4/1 
g mesh_[00]_[52]
f  208/1/1  209/2/1  210/3/1  163/4/1 
f  339/1/1  341/2/1  342/3/1  340/4/1 
f  347/1/1  349/2/1  350/3/1  348/4/1 
f  355/1/1  357/2/1  358/3/1  356/4/1 
f  363/1/1  365/2/1  366/3/1  364/4/1 
f  371/1/1  373/2/1  374/3/1  372/4/1 
f  512/1/1  514/2/1  515/3/1  513/4/1 
g mesh_[00]_[61]
f  458/1/1  459/2/1  460/3/1  376/4/1 
g mesh_[00]_[66]
f  524/1/1  525/2/1  526/3/1  527/4/1 
f  540/1/1  541/2/1  542/3/1  543/4/1 
f  570/1/1  571/2/1  572/3/1  573/4/1 
g mesh_[00]_[67]
f  525/1/1  528/2/1  529/3/1  530/4/1 
f  541/1/1  544/2/1  545/3/1  546/4/1 
f  571/1/1  574/2/1  575/3/1  576/4/1 
g mesh_[00]_[70]
f  528/1/1  531/2/1  532/3/1  533/4/1 
f  544/1/1  547/2/1  548/3/1  549/4/1 
f  574/1/1  577/2/1  578/3/1  579/4/1 
g mesh_[02]_[76]
f  6/1/1  606/2/1  607/3/1  608/4/1 
f  67/1/1  615/2/1  616/3/1  617/4/1 
f  308/1/1  654/2/1  655/3/1  656/4/1 
f  320/1/1  657/2/1  658/3/1  659/4/1 
f  328/1/1  660/2/1  661/3/1  662/4/1 
f  336/1/1  663/2/1  664/3/1  665/4/1 
f  414/1/1  681/2/1  682/3/1  683/4/1 
f  509/1/1  705/2/1  706/3/1  707/4/1 
g mesh_[02]_[05]
f  25/1/1  609/2/1  610/3/1  611/4/1 
f  232/1/1  642/2/1  643/3/1  644/4/1 
f  231/1/1  645/2/1  646/3/1  647/4/1 
f  256/1/1  648/2/1  649/3/1  650/4/1 
f  255/1/1  651/2/1  652/3/1  653/4/1 
f  393/1/1  672/2/1  673/3/1  674/4/1 
f  402/1/1  675/2/1  676/3/1  677/4/1 
f  408/1/1  678/2/1  679/3/1  680/4/1 
f  466/1/1  699/2/1  700/3/1  701/4/1 
f  565/1/1  711/2/1  712/3/1  713/4/1 
f  591/1/1  717/2/1  718/3/1  719/4/1 
f  593/1/1  720/2/1  721/3/1  722/4/1 
f  598/1/1  723/2/1  724/3/1  725/4/1 
g mesh_[02]_[20]
f  48/1/1  612/2/1  613/3/1  614/4/1 
f  518/1/1  708/2/1  709/3/1  710/4/1 
g mesh_[02]_[75]
f  98/1/1  618/2/1  619/3/1  620/4/1 
f  144/1/1  630/2/1  631/3/1  632/4/1 
f  157/1/1  636/2/1  637/3/1  638/4/1 
f  226/1/1  639/2/1  640/3/1  641/4/1 
g mesh_[02]_[14]
f  108/1/1  621/2/1  622/3/1  623/4/1 
g mesh_[02]_[06]
f  114/1/1  624/2/1  625/3/1  626/4/1 
f  134/1/1  627/2/1  628/3/1  629/4/1 
f  583/1/1  714/2/1  715/3/1  716/4/1 
g mesh_[02]_[19]
f  152/1/1  633/2/1  634/3/1  635/4/1 
f  474/1/1  702/2/1  703/3/1  704/4/1 
g mesh_[02]_[15]
f  345/1/1  666/2/1  667/3/1  668/4/1 
g mesh_[02]_[16]
f  353/1/1  669/2/1  670/3/1  671/4/1 
f  438/1/1  693/2/1  694/3/1  695/4/1 
f  446/1/1  696/2/1  697/3/1  698/4/1 
g mesh_[02]_[04]
f  422/1/1  684/2/1  685/3/1  686/4/1 
g mesh_[02]_[03]
f  428/1/1  687/2/1  688/3/1  689/4/1 
g mesh_[02]_[79]
f  433/1/1  690/2/1  691/3/1  692/4/1 
